<?xml version="1.0" encoding="UTF-8"?>
<svg width="30px" height="30px" viewBox="0 0 30 30" version="1.1" xmlns="http://www.w3.org/2000/svg" xmlns:xlink="http://www.w3.org/1999/xlink">
    <!-- Generator: Sketch 63.1 (92452) - https://sketch.com -->
    <title>Linkedin</title>
    <desc>Created with Sketch.</desc>
    <g id="Page-1" stroke="none" stroke-width="1" fill="none" fill-rule="evenodd">
        <g id="Inicio" transform="translate(-1514.000000, -1971.000000)">
            <g id="Group-2" transform="translate(1469.000000, 1971.000000)">
                <g id="Linkedin" transform="translate(45.000000, 0.000000)">
                    <path d="M9.5761624,11.1669732 C10.4462832,11.1669732 11.1523248,10.4462832 11.1523248,9.5761624 C11.1523248,8.70604156 10.4462832,8 9.5761624,8 C8.70604156,8 8,8.70604156 8,9.5761624 C8,10.4462832 8.70604156,11.1669732 9.5761624,11.1669732 Z M15.3622814,21.1249687 L15.3622814,16.7861233 C15.3622814,15.6435479 15.5790892,14.5390526 16.9941192,14.5390526 C18.3886357,14.5390526 18.4091491,15.8427605 18.4091491,16.8593653 L18.4091491,21.1249687 L21.1278869,21.1249687 L21.1278869,16.3115093 C21.1278869,13.9560348 20.6210579,12.1425797 17.8671583,12.1425797 C16.5429369,12.1425797 15.6552495,12.8691347 15.2919862,13.5576097 L15.2538775,13.5576097 L15.2538775,12.3623057 L12.6435436,12.3623057 L12.6435436,21.1249687 L15.3622814,21.1249687 Z M10.9384638,21.1249687 L10.9384638,12.3623057 L8.2168078,12.3623057 L8.2168078,21.1249687 L10.9384638,21.1249687 Z" id="" fill="#FFFFFF" fill-rule="nonzero"></path>
                    <circle id="Oval" stroke="#FFFFFF" opacity="0.6" cx="15" cy="15" r="14.5"></circle>
                </g>
            </g>
        </g>
    </g>
</svg>