<?xml version="1.0" encoding="UTF-8"?>
<svg width="30px" height="30px" viewBox="0 0 30 30" version="1.1" xmlns="http://www.w3.org/2000/svg" xmlns:xlink="http://www.w3.org/1999/xlink">
    <!-- Generator: Sketch 63.1 (92452) - https://sketch.com -->
    <title>Medium</title>
    <desc>Created with Sketch.</desc>
    <g id="Page-1" stroke="none" stroke-width="1" fill="none" fill-rule="evenodd">
        <g id="Inicio" transform="translate(-1559.000000, -1971.000000)">
            <g id="Group-2" transform="translate(1469.000000, 1971.000000)">
                <g id="Medium" transform="translate(90.000000, 0.000000)">
                    <path d="M22.1444918,20.2441081 L22.1444918,20.0068154 L21.0399965,18.9228336 C20.9433228,18.8495916 20.8935125,18.7265393 20.914026,18.6064339 L20.914026,10.6377029 C20.8935125,10.5175688 20.9433228,10.3945165 21.0399965,10.3212745 L22.1708704,9.23729268 L22.1708704,9 L18.2538818,9 L15.461902,15.9638563 L12.2861169,9 L8.17869907,9 L8.17869907,9.23729268 L9.5,10.8310503 C9.62889092,10.9482375 9.69626785,11.1211001 9.67870121,11.2939341 L9.67870121,17.5575853 C9.71972818,17.7831765 9.64648617,18.0146327 9.48827198,18.1786833 L8,19.9863019 L8,20.2206764 L12.2187399,20.2206764 L12.2187399,19.9833837 L10.730468,18.1786833 C10.5693355,18.0146327 10.4931467,17.7861233 10.5253903,17.5575853 L10.5253903,12.1406232 L14.2284893,20.2235946 L14.6591581,20.2235946 L17.8437265,12.1406232 L17.8437265,18.5800553 C17.8437265,18.749971 17.8437265,18.7851329 17.7324044,18.8964551 L16.5868821,20.0068154 L16.5868821,20.2441081 L22.1444918,20.2441081 Z" id="ï‡" fill="#FFFFFF" fill-rule="nonzero"></path>
                    <circle id="Oval" stroke="#FFFFFF" opacity="0.6" cx="15" cy="15" r="14.5"></circle>
                </g>
            </g>
        </g>
    </g>
</svg>