<?xml version="1.0" encoding="UTF-8"?>
<svg width="133px" height="54px" viewBox="0 0 133 54" version="1.1" xmlns="http://www.w3.org/2000/svg" xmlns:xlink="http://www.w3.org/1999/xlink">
    <!-- Generator: Sketch 63.1 (92452) - https://sketch.com -->
    <title>NGM LOGO footer</title>
    <desc>Created with Sketch.</desc>
    <g id="Page-1" stroke="none" stroke-width="1" fill="none" fill-rule="evenodd">
        <g id="Inicio" transform="translate(-450.000000, -1959.000000)">
            <g id="NGM-LOGO-footer" transform="translate(450.000000, 1959.000000)">
                <path d="M0.900956961,52.0607222 L1.52434637,50.3316129 L4.30002186,50.3316129 L4.93251185,52.0607222 L5.82891852,52.0607222 L3.29440828,45.4355034 L2.52995995,45.4355034 L-4.26325641e-14,52.0607222 L0.900956961,52.0607222 Z M4.04065546,49.6126675 L1.78826306,49.6126675 L2.91218412,46.5139215 L4.04065546,49.6126675 Z M17.4873623,52.0607222 L17.4873623,48.5661013 C17.6845414,48.0959049 18.0591817,47.8608067 18.6112833,47.8608067 C18.759926,47.8608067 18.8979514,47.871424 19.0253595,47.8926587 L19.0253595,47.8926587 L19.0253595,47.1100092 C18.9404208,47.0675399 18.8160463,47.0463052 18.6522359,47.0463052 C18.1456372,47.0463052 17.7543125,47.2662358 17.4782617,47.7060969 L17.4782617,47.7060969 L17.4646108,47.137311 L16.645559,47.137311 L16.645559,52.0607222 L17.4873623,52.0607222 Z M33.7142948,53.9536419 L33.7142948,47.137311 L32.9407459,47.137311 L32.9043436,47.6332923 C32.5676223,47.2419676 32.1080433,47.0463052 31.5256065,47.0463052 C30.928002,47.0463052 30.4517386,47.2715444 30.0968161,47.7220229 C29.7418937,48.1725014 29.5644325,48.7845151 29.5644325,49.558064 L29.5644325,49.558064 L29.5644325,49.6172177 C29.5644325,50.3816661 29.7411353,50.9951965 30.094541,51.4578091 C30.4479467,51.9204217 30.921935,52.151728 31.5165059,52.151728 C32.0807416,52.151728 32.5327368,51.9697165 32.8724916,51.6056935 L32.8724916,51.6056935 L32.8724916,53.9536419 L33.7142948,53.9536419 Z M31.7258191,51.4646345 C31.3223603,51.4646345 31.001565,51.3038577 30.7634333,50.982304 C30.5253016,50.6607504 30.4062357,50.2178557 30.4062357,49.65362 C30.4062357,49.0226468 30.5260599,48.545625 30.7657084,48.2225546 C31.0053569,47.8994841 31.3284273,47.7379489 31.7349197,47.7379489 C32.2263508,47.7379489 32.6055414,47.954846 32.8724916,48.3886401 L32.8724916,48.3886401 L32.8724916,50.8002925 C32.6085749,51.2431872 32.2263508,51.4646345 31.7258191,51.4646345 Z M46.7196237,52.151728 C47.3536305,52.151728 47.8344442,51.9590991 48.1620649,51.5738414 L48.1620649,51.5738414 L48.1802661,52.0607222 L48.9811167,52.0607222 L48.9811167,47.137311 L48.1393135,47.137311 L48.1393135,50.7183874 C47.9269667,51.1976843 47.4992397,51.4373328 46.8561324,51.4373328 C46.2494273,51.4373328 45.9460748,51.0642092 45.9460748,50.317962 L45.9460748,50.317962 L45.9460748,47.137311 L45.1042716,47.137311 L45.1042716,50.3407135 C45.1073051,50.9383179 45.2460889,51.3895548 45.5206229,51.6944241 C45.7951569,51.9992933 46.1948239,52.151728 46.7196237,52.151728 Z M60.8170217,46.3091586 C60.980832,46.3091586 61.1052066,46.2636557 61.1901453,46.17265 C61.275084,46.0816442 61.3175533,45.967887 61.3175533,45.8313784 C61.3175533,45.6948698 61.275084,45.5795958 61.1901453,45.4855565 C61.1052066,45.3915172 60.980832,45.3444976 60.8170217,45.3444976 C60.6532113,45.3444976 60.5295952,45.3915172 60.4461732,45.4855565 C60.3627513,45.5795958 60.3210403,45.6948698 60.3210403,45.8313784 C60.3210403,45.967887 60.3627513,46.0816442 60.4461732,46.17265 C60.5295952,46.2636557 60.6532113,46.3091586 60.8170217,46.3091586 Z M61.2310978,52.0607222 L61.2310978,47.137311 L60.3892946,47.137311 L60.3892946,52.0607222 L61.2310978,52.0607222 Z M74.0726164,52.151728 C74.2819296,52.151728 74.4973099,52.1213927 74.7187572,52.0607222 L74.7187572,52.0607222 L74.7187572,51.3781791 C74.5488798,51.4145814 74.4154047,51.4327825 74.3183319,51.4327825 C74.1211528,51.4327825 73.9816106,51.3834877 73.8997055,51.2848982 C73.8178003,51.1863086 73.7768477,51.0384243 73.7768477,50.8412451 L73.7768477,50.8412451 L73.7768477,47.7880021 L74.6960058,47.7880021 L74.6960058,47.137311 L73.7768477,47.137311 L73.7768477,45.9451356 L72.9350445,45.9451356 L72.9350445,47.137311 L72.0386378,47.137311 L72.0386378,47.7880021 L72.9350445,47.7880021 L72.9350445,50.8412451 C72.9350445,51.2598716 73.0306005,51.582942 73.2217126,51.8104564 C73.4128247,52.0379708 73.6964593,52.151728 74.0726164,52.151728 Z M87.7786896,52.151728 C88.6038084,52.151728 89.2226475,51.8347246 89.635207,51.2007179 L89.635207,51.2007179 L89.1210245,50.8002925 C88.9663147,51.0005052 88.7858199,51.161282 88.5795402,51.282623 C88.3732605,51.403964 88.1214779,51.4646345 87.8241925,51.4646345 C87.405566,51.4646345 87.0605025,51.3152334 86.789002,51.0164312 C86.5175015,50.717629 86.3756842,50.3255459 86.3635501,49.8401818 L86.3635501,49.8401818 L89.698911,49.8401818 L89.698911,49.4898097 C89.698911,48.7041267 89.5214498,48.1004552 89.1665273,47.6787952 C88.8116049,47.2571352 88.3141068,47.0463052 87.674033,47.0463052 C87.2827082,47.0463052 86.9194436,47.1547537 86.5842391,47.3716508 C86.2490345,47.5885478 85.9881514,47.8888668 85.8015896,48.2726077 C85.6150278,48.6563487 85.5217469,49.0924179 85.5217469,49.5808154 L85.5217469,49.5808154 L85.5217469,49.7355252 C85.5217469,50.4696383 85.7310601,51.055867 86.1496866,51.4942114 C86.5683131,51.9325558 87.1113141,52.151728 87.7786896,52.151728 Z M88.8571078,49.1485381 L86.3908518,49.1485381 C86.4454553,48.7026099 86.588031,48.3560297 86.8185789,48.1087974 C87.0491268,47.8615651 87.3342782,47.7379489 87.674033,47.7379489 C88.0259219,47.7379489 88.3050062,47.855498 88.5112859,48.0905962 C88.7175656,48.3256944 88.8328396,48.657107 88.8571078,49.0848341 L88.8571078,49.0848341 L88.8571078,49.1485381 Z M102.70424,52.151728 C103.037928,52.151728 103.354173,52.0758898 103.652975,51.9242136 C103.951777,51.7725373 104.190667,51.5692912 104.369645,51.314475 C104.548623,51.0596589 104.645696,50.791192 104.660864,50.5090741 L104.660864,50.5090741 L103.864563,50.5090741 C103.840295,50.7820914 103.715921,51.0096058 103.49144,51.1916173 C103.266959,51.3736288 103.004559,51.4646345 102.70424,51.4646345 C102.270446,51.4646345 101.936758,51.3114415 101.703177,51.0050555 C101.469595,50.6986694 101.352804,50.2618418 101.352804,49.6945726 L101.352804,49.6945726 L101.352804,49.5353126 C101.352804,48.9528757 101.470354,48.5077059 101.705452,48.1998031 C101.94055,47.8919003 102.271963,47.7379489 102.69969,47.7379489 C103.01821,47.7379489 103.285918,47.8403304 103.502815,48.0450933 C103.719712,48.2498563 103.840295,48.5114978 103.864563,48.830018 L103.864563,48.830018 L104.660864,48.830018 C104.636595,48.3021846 104.441691,47.8729408 104.076152,47.5422866 C103.710612,47.2116323 103.251791,47.0463052 102.69969,47.0463052 C102.250728,47.0463052 101.861678,47.1494451 101.532541,47.3557248 C101.203403,47.5620045 100.950862,47.8517061 100.774918,48.2248297 C100.598973,48.5979533 100.511001,49.0241636 100.511001,49.5034605 L100.511001,49.5034605 L100.511001,49.6445195 C100.511001,50.4211019 100.708939,51.0331156 101.104814,51.4805605 C101.500689,51.9280055 102.033831,52.151728 102.70424,52.151728 Z M117.101957,52.151728 C117.31127,52.151728 117.52665,52.1213927 117.748098,52.0607222 L117.748098,52.0607222 L117.748098,51.3781791 C117.57822,51.4145814 117.444745,51.4327825 117.347672,51.4327825 C117.150493,51.4327825 117.010951,51.3834877 116.929046,51.2848982 C116.847141,51.1863086 116.806188,51.0384243 116.806188,50.8412451 L116.806188,50.8412451 L116.806188,47.7880021 L117.725346,47.7880021 L117.725346,47.137311 L116.806188,47.137311 L116.806188,45.9451356 L115.964385,45.9451356 L115.964385,47.137311 L115.067978,47.137311 L115.067978,47.7880021 L115.964385,47.7880021 L115.964385,50.8412451 C115.964385,51.2598716 116.059941,51.582942 116.251053,51.8104564 C116.442165,52.0379708 116.7258,52.151728 117.101957,52.151728 Z M130.694273,52.151728 C131.137167,52.151728 131.529251,52.0455546 131.870522,51.8332078 C132.211794,51.6208611 132.474194,51.324334 132.657722,50.9436266 C132.84125,50.5629192 132.933014,50.132917 132.933014,49.65362 L132.933014,49.65362 L132.933014,49.5944663 C132.933014,48.8239509 132.725976,48.2066286 132.3119,47.7424992 C131.897824,47.2783699 131.355581,47.0463052 130.685172,47.0463052 C130.251378,47.0463052 129.865362,47.1509618 129.527124,47.3602751 C129.188886,47.5695883 128.924969,47.8668737 128.735374,48.2521314 C128.545779,48.6373891 128.450981,49.0711832 128.450981,49.5535137 L128.450981,49.5535137 L128.450981,49.6126675 C128.450981,50.3771158 128.658019,50.9914046 129.072095,51.455534 C129.486171,51.9196633 130.026897,52.151728 130.694273,52.151728 Z M130.694273,51.4646345 C130.269579,51.4646345 129.930583,51.2993074 129.677284,50.9686532 C129.423984,50.6379989 129.297334,50.1996546 129.297334,49.65362 C129.297334,49.0378144 129.424743,48.5645845 129.679559,48.2339303 C129.934375,47.903276 130.269579,47.7379489 130.685172,47.7379489 C131.109866,47.7379489 131.450379,47.9055512 131.706712,48.2407557 C131.963045,48.5759602 132.091211,49.0135462 132.091211,49.5535137 C132.091211,50.1571852 131.96532,50.6266232 131.713537,50.9618277 C131.461755,51.2970323 131.122,51.4646345 130.694273,51.4646345 Z" id="Arquitecto" fill="#C9C9C9" fill-rule="nonzero"></path>
                <path d="M103.853397,1.56319402e-13 L103.852679,1.362 L116.060679,13.57 L128.268679,1.362 L128.269665,1.56319402e-13 L132.920383,1.56319402e-13 L132.920383,33.7177033 L128.269665,33.7177033 L128.268679,7.939 L119.349679,16.859 L119.363343,16.8721091 L116.074789,20.1606632 L116.061679,20.147 L116.048076,20.1606632 L112.759522,16.8721091 L112.772679,16.858 L103.852679,7.938 L103.853397,33.7177033 L99.2026794,33.7177033 L99.2026794,1.56319402e-13 L103.853397,1.56319402e-13 Z" id="Combined-Shape" fill="#C9C9C9"></path>
                <path d="M94.9426794,22.8660287 L94.9426794,24.0287081 L87.5790431,24.0287081 L87.5790431,22.8660287 L94.9426794,22.8660287 Z M94.9426794,20.2822967 L94.9426794,21.4449761 L87.5790431,21.4449761 L87.5790431,20.2822967 L94.9426794,20.2822967 Z M94.9426794,17.9569378 L94.9426794,19.1196172 L87.5790431,19.1196172 L87.5790431,17.9569378 L94.9426794,17.9569378 Z" id="Combined-Shape" fill="#FFFFFF"></path>
                <path d="M66.4601914,1.42108547e-13 C71.1161383,1.42108547e-13 75.3312594,1.88739949 78.3821897,4.93883337 L75.0926457,8.22639736 C72.883408,6.01715964 69.8313745,4.6507177 66.4601914,4.6507177 C59.7178252,4.6507177 54.2520574,10.1164855 54.2520574,16.8588517 C54.2520574,23.6012179 59.7178252,29.0669856 66.4601914,29.0669856 C71.5805769,29.0669856 75.964696,25.9146547 77.7777059,21.4448355 L66.9769378,21.4449761 L66.9769378,16.7942584 L78.6663397,16.794 L78.6663397,16.794 L83.3189237,16.7947219 L83.3190431,16.8588517 L83.3190431,16.8588517 C83.3190431,26.1697384 75.7710781,33.7177033 66.4601914,33.7177033 C57.1493047,33.7177033 49.6013397,26.1697384 49.6013397,16.8588517 C49.6013397,7.547965 57.1493047,1.42108547e-13 66.4601914,1.42108547e-13 Z" id="Combined-Shape" fill="#C9C9C9" fill-rule="nonzero"></path>
                <path d="M45.3413397,22.8660287 L45.3413397,24.0287081 L37.9777033,24.0287081 L37.9777033,22.8660287 L45.3413397,22.8660287 Z M45.3413397,20.2822967 L45.3413397,21.4449761 L37.9777033,21.4449761 L37.9777033,20.2822967 L45.3413397,20.2822967 Z M45.3413397,17.9569378 L45.3413397,19.1196172 L37.9777033,19.1196172 L37.9777033,17.9569378 L45.3413397,17.9569378 Z" id="Combined-Shape" fill="#FFFFFF"></path>
                <path d="M4.6507177,1.49213975e-13 L4.65,1.432 L29.066,25.848 L29.0669856,1.49213975e-13 L33.7177033,1.49213975e-13 L33.7177033,33.7177033 L29.0669856,33.7177033 L29.066,32.425 L4.65,8.008 L4.6507177,33.7177033 L4.61852778e-14,33.7177033 L4.61852778e-14,1.49213975e-13 L4.6507177,1.49213975e-13 Z" id="Combined-Shape" fill="#C9C9C9"></path>
            </g>
        </g>
    </g>
</svg>