<?xml version="1.0" encoding="UTF-8"?>
<svg width="30px" height="30px" viewBox="0 0 30 30" version="1.1" xmlns="http://www.w3.org/2000/svg" xmlns:xlink="http://www.w3.org/1999/xlink">
    <!-- Generator: Sketch 63.1 (92452) - https://sketch.com -->
    <title>YouTube</title>
    <desc>Created with Sketch.</desc>
    <g id="Page-1" stroke="none" stroke-width="1" fill="none" fill-rule="evenodd">
        <g id="Inicio" transform="translate(-1469.000000, -1971.000000)">
            <g id="Group-2" transform="translate(1469.000000, 1971.000000)">
                <g id="YouTube">
                    <path d="M21.2506346,20.9129581 C21.9390237,20.7277932 22.4811863,20.204828 22.6652068,19.5119758 C22.9623965,18.3956454 22.9954176,16.2012785 22.9990866,15.7274233 L22.9990866,15.5442627 C22.9954176,15.0704125 22.9623965,12.8760682 22.6652068,11.7597379 C22.4811863,11.066857 21.9390237,10.5211754 21.2506346,10.3360104 C20.1454879,10.0379563 16.0941123,10.003893 15.1825181,10 L14.8165694,10 C13.9049801,10.003893 9.85362403,10.0379563 8.74845192,10.3360104 C8.06006283,10.521204 7.51790028,11.066857 7.33387972,11.7597379 C7.03669008,12.8760682 7.00366901,15.0704125 7,15.5442627 L7,15.7274233 C7.00366901,16.2012785 7.03669008,18.3956454 7.33387972,19.5119758 C7.51790028,20.204828 8.06006283,20.7277932 8.74845192,20.9129581 C9.81797332,21.2013976 13.646668,21.2426033 14.7187538,21.2484898 L15.2803327,21.2484898 C16.3524185,21.2426033 20.1811132,21.2013976 21.2506346,20.9129581 Z M13.3631565,18.0148346 L13.3631565,13.2568504 L17.5449607,15.6358997 L13.3631565,18.0148346 Z" id="" fill="#FFFFFF" fill-rule="nonzero"></path>
                    <circle id="Oval" stroke="#FFFFFF" opacity="0.6" cx="15" cy="15" r="14.5"></circle>
                </g>
            </g>
        </g>
    </g>
</svg>